<svg width="160" height="50" viewBox="0 0 418 120" fill="none" xmlns="http://www.w3.org/2000/svg">
<path d="M13.2 81V0.599998H16.2V81H13.2ZM7.45058e-08 81V0.599998H3V81H7.45058e-08ZM6.6 81V0.599998H9.6V81H6.6ZM77.9 81V0.599998H80.9V81H77.9ZM64.7 81V0.599998H67.7V81H64.7ZM71.3 81V0.599998H74.3V81H71.3ZM44.2 34.6L42.4 31.9L61.1 4.8V10.1L44.2 34.6ZM48.2 51.9L19.8 11.3V6.2L50.1 49.3L48.2 51.9ZM48.3 40.4L46.5 37.7L61.1 16.9V22.1L48.3 40.4ZM44.2 57.8L19.8 23V17.7L46 55.1L44.2 57.8ZM52.3 46.1L50.5 43.5L61.1 28.4V33.6L52.3 46.1ZM40.2 63.5L19.8 34.5V29.2L42 60.9L40.2 63.5ZM129.318 60.9C129.318 57.4333 128.485 54.3667 126.818 51.7C125.218 48.9667 122.985 46.8 120.118 45.2C117.318 43.6 114.151 42.8 110.618 42.8C107.085 42.8 103.885 43.6 101.018 45.2C98.218 46.8 95.9846 48.9667 94.318 51.7C92.718 54.3667 91.918 57.4333 91.918 60.9C91.918 64.3 92.718 67.3667 94.318 70.1C95.9846 72.8333 98.218 75 101.018 76.6C103.885 78.2 107.085 79 110.618 79C114.151 79 117.318 78.2 120.118 76.6C122.985 75 125.218 72.8333 126.818 70.1C128.485 67.3667 129.318 64.3 129.318 60.9ZM122.718 60.9C122.718 57.5667 121.551 54.8333 119.218 52.7C116.951 50.5 114.085 49.4 110.618 49.4C107.151 49.4 104.251 50.5 101.918 52.7C99.6513 54.8333 98.518 57.5667 98.518 60.9C98.518 64.1667 99.6513 66.9 101.918 69.1C104.251 71.3 107.151 72.4 110.618 72.4C114.085 72.4 116.951 71.3 119.218 69.1C121.551 66.9 122.718 64.1667 122.718 60.9ZM110.618 75.4C107.751 75.4 105.185 74.7667 102.918 73.5C100.651 72.2333 98.8513 70.5 97.518 68.3C96.1846 66.1 95.518 63.6333 95.518 60.9C95.518 58.1667 96.1846 55.7 97.518 53.5C98.8513 51.3 100.651 49.5667 102.918 48.3C105.185 47.0333 107.751 46.4 110.618 46.4C113.485 46.4 116.051 47.0333 118.318 48.3C120.585 49.5667 122.385 51.3 123.718 53.5C125.051 55.7 125.718 58.1667 125.718 60.9C125.718 63.6333 125.051 66.1 123.718 68.3C122.385 70.5 120.585 72.2333 118.318 73.5C116.051 74.7667 113.485 75.4 110.618 75.4ZM110.618 82C106.551 82 102.885 81.0667 99.618 79.2C96.3513 77.3333 93.7513 74.8 91.818 71.6C89.8846 68.4 88.918 64.8333 88.918 60.9C88.918 56.9 89.8846 53.3333 91.818 50.2C93.7513 47 96.3513 44.4667 99.618 42.6C102.885 40.7333 106.551 39.8 110.618 39.8C114.685 39.8 118.351 40.7333 121.618 42.6C124.885 44.4667 127.485 47 129.418 50.2C131.351 53.3333 132.318 56.9 132.318 60.9C132.318 64.8333 131.351 68.4 129.418 71.6C127.485 74.8 124.885 77.3333 121.618 79.2C118.351 81.0667 114.685 82 110.618 82ZM154.979 81L141.379 40.8H144.579L153.179 66.1L161.579 40.8H164.779L154.679 70.7L156.579 76.3L168.579 40.8H171.779L158.179 81H154.979ZM147.979 81L134.379 40.8H137.579L151.179 81H147.979ZM183.334 81V40.8H186.334V81H183.334ZM176.734 81V40.8H179.734V81H176.734ZM200.913 81V40.8H224.813V43.8H203.913V47.4H224.813V50.4H203.913V56.1H221.613V59.1H203.913V62.7H221.613V65.7H203.913V71.4H224.813V74.4H203.913V78H224.813V81H200.913ZM194.313 81V40.8H197.313V81H194.313Z" fill="white"/>
<path d="M262.541 27.4L260.641 24.9L278.241 0.599998H281.941L262.541 27.4ZM266.741 32.8L264.841 30.3L286.441 0.599998H290.141L266.741 32.8ZM270.941 38.2L269.041 35.7L294.641 0.599998H298.341L270.941 38.2ZM244.841 81V0.599998H247.841V81H244.841ZM231.641 81V0.599998H234.641V81H231.641ZM238.241 81V0.599998H241.241V81H238.241ZM295.541 81L256.541 30.5L258.441 28L299.341 81H295.541ZM287.241 81L252.541 36.1L254.441 33.5L291.041 81H287.241ZM278.841 81L248.541 41.7L250.341 39.2L282.641 81H278.841ZM311.166 81V40.8H335.066V43.8H314.166V47.4H335.066V50.4H314.166V56.1H331.866V59.1H314.166V62.7H331.866V65.7H314.166V71.4H335.066V74.4H314.166V78H335.066V81H311.166ZM304.566 81V40.8H307.566V81H304.566ZM359.641 75.4C356.775 75.4 354.208 74.7667 351.941 73.5C349.675 72.2333 347.875 70.5 346.541 68.3C345.208 66.1 344.541 63.6333 344.541 60.9C344.541 58.1667 345.208 55.7 346.541 53.5C347.875 51.3 349.675 49.5667 351.941 48.3C354.208 47.0333 356.775 46.4 359.641 46.4C362.041 46.4 364.241 46.8667 366.241 47.8C368.308 48.7333 370.008 50 371.341 51.6L368.941 53.4C366.675 50.7333 363.575 49.4 359.641 49.4C356.175 49.4 353.275 50.5 350.941 52.7C348.675 54.8333 347.541 57.5667 347.541 60.9C347.541 64.1667 348.675 66.9 350.941 69.1C353.275 71.3 356.175 72.4 359.641 72.4C363.575 72.4 366.675 71.0667 368.941 68.4L371.341 70.2C370.008 71.8 368.308 73.0667 366.241 74C364.241 74.9333 362.041 75.4 359.641 75.4ZM359.641 82C355.575 82 351.908 81.0667 348.641 79.2C345.375 77.3333 342.775 74.8 340.841 71.6C338.908 68.4 337.941 64.8333 337.941 60.9C337.941 56.9 338.908 53.3333 340.841 50.2C342.775 47 345.375 44.4667 348.641 42.6C351.908 40.7333 355.575 39.8 359.641 39.8C363.108 39.8 366.308 40.5 369.241 41.9C372.175 43.3 374.608 45.1667 376.541 47.5L374.241 49.3C372.575 47.3 370.475 45.7333 367.941 44.6C365.408 43.4 362.641 42.8 359.641 42.8C356.108 42.8 352.908 43.6 350.041 45.2C347.241 46.8 345.008 48.9667 343.341 51.7C341.741 54.3667 340.941 57.4333 340.941 60.9C340.941 64.3 341.741 67.3667 343.341 70.1C345.008 72.8333 347.241 75 350.041 76.6C352.908 78.2 356.108 79 359.641 79C362.641 79 365.408 78.4333 367.941 77.3C370.475 76.1 372.575 74.5 374.241 72.5L376.541 74.3C374.608 76.6333 372.175 78.5 369.241 79.9C366.308 81.3 363.108 82 359.641 82ZM389.682 81V40.8H392.682V56.1H408.282V40.8H411.282V81H408.282V65.7H392.682V81H389.682ZM383.082 81V40.8H386.082V81H383.082ZM414.882 81V40.8H417.882V81H414.882ZM392.682 62.7H408.282V59.1H392.682V62.7Z" fill="#DA8255"/>
</svg>
